HIERARCHY
ROOT Hips
{
 OFFSET 0.000000 0.000000 0.000000
 CHANNELS 6 Xposition Yposition Zposition Yrotation Xrotation Zrotation
 JOINT Chest
 {
  OFFSET 0.000000 9.585900 0.002600
  CHANNELS 3 Yrotation Xrotation Zrotation
  JOINT Chest2
  {
   OFFSET 0.000000 9.601200 -0.005300
   CHANNELS 3 Yrotation Xrotation Zrotation
   JOINT Chest3
   {
    OFFSET 0.000000 9.561800 0.000000
    CHANNELS 3 Yrotation Xrotation Zrotation
    JOINT Chest4
    {
     OFFSET 0.000000 9.552100 0.000000
     CHANNELS 3 Yrotation Xrotation Zrotation
     JOINT Neck
     {
      OFFSET 0.000000 14.453000 0.000000
      CHANNELS 3 Yrotation Xrotation Zrotation
      JOINT Head
      {
       OFFSET 0.000000 8.936500 -0.011300
       CHANNELS 3 Yrotation Xrotation Zrotation
       End Site
       {
        OFFSET 0.000000 17.073600 -0.006000
       }
      }
     }
     JOINT RightCollar
     {
      OFFSET -2.921100 9.558500 0.000000
      CHANNELS 3 Yrotation Xrotation Zrotation
      JOINT RightShoulder
      {
       OFFSET -13.519700 0.000000 0.000000
       CHANNELS 3 Yrotation Xrotation Zrotation
       JOINT RightElbow
       {
        OFFSET 0.000000 -29.696600 0.000000
        CHANNELS 3 Yrotation Xrotation Zrotation
        JOINT RightWrist
        {
         OFFSET 0.000000 -24.004700 0.000000
         CHANNELS 3 Yrotation Xrotation Zrotation
         End Site
         {
          OFFSET 0.000000 -17.728500 0.000000
         }
        }
       }
      }
     }
     JOINT LeftCollar
     {
      OFFSET 2.921100 9.558500 0.000000
      CHANNELS 3 Yrotation Xrotation Zrotation
      JOINT LeftShoulder
      {
       OFFSET 13.519700 0.000000 0.000000
       CHANNELS 3 Yrotation Xrotation Zrotation
       JOINT LeftElbow
       {
        OFFSET 0.000000 -29.696600 0.000000
        CHANNELS 3 Yrotation Xrotation Zrotation
        JOINT LeftWrist
        {
         OFFSET 0.000000 -24.004700 0.000000
         CHANNELS 3 Yrotation Xrotation Zrotation
         End Site
         {
          OFFSET 0.000000 -17.728500 0.000000
         }
        }
       }
      }
     }
    }
   }
  }
 }
 JOINT RightHip
 {
  OFFSET -7.771700 -0.012900 -0.001300
  CHANNELS 3 Yrotation Xrotation Zrotation
  JOINT RightKnee
  {
   OFFSET 0.000000 -40.869800 0.001200
   CHANNELS 3 Yrotation Xrotation Zrotation
   JOINT RightAnkle
   {
    OFFSET 0.000000 -39.717900 0.002100
    CHANNELS 3 Yrotation Xrotation Zrotation
    JOINT RightToe
    {
     OFFSET 0.000000 -4.965400 11.033500
     CHANNELS 3 Yrotation Xrotation Zrotation
     End Site
     {
      OFFSET 0.000000 -1.423100 5.872300
     }
    }
   }
  }
 }
 JOINT LeftHip
 {
  OFFSET 7.771700 -0.012900 -0.001300
  CHANNELS 3 Yrotation Xrotation Zrotation
  JOINT LeftKnee
  {
   OFFSET 0.000000 -40.869800 0.001200
   CHANNELS 3 Yrotation Xrotation Zrotation
   JOINT LeftAnkle
   {
    OFFSET 0.000000 -39.717900 0.002100
    CHANNELS 3 Yrotation Xrotation Zrotation
    JOINT LeftToe
    {
     OFFSET 0.000000 -4.965400 11.033500
     CHANNELS 3 Yrotation Xrotation Zrotation
     End Site
     {
      OFFSET 0.000000 -1.423100 5.872300
     }
    }
   }
  }
 }
}
MOTION
Frames: 5
Frame Time: 0.008333
0.000000 85.388000 0.000000 0.000000 -5.767877 0.000000 0.000000 11.653817 0.000000 0.000000 -5.885947 0.000000 0.000000 -0.000000 0.000000 0.000000 -0.000000 0.000000 0.000000 12.528835 0.000000 0.000000 0.711642 0.000000 0.000000 -0.000000 0.000000 0.000000 0.000000 -90.000000 0.000000 -2.309062 0.000000 0.000000 2.309062 0.000000 0.000000 -0.000000 0.000000 0.000000 -0.000000 90.000000 0.000000 -2.309062 0.000000 0.000000 2.309062 0.000000 0.000000 8.520406 0.000000 0.000000 1.905762 0.000000 -0.000000 -4.658285 0.000000 0.000000 -0.000000 0.000000 0.000000 8.520406 0.000000 0.000000 1.905762 0.000000 -0.000000 -4.658285 0.000000 0.000000 -0.000000 0.000000
-109.245686 57.336116 -5.474597 161.789134 -5.825634 0.577856 0.905076 4.239702 3.524844 -0.040582 0.137530 0.081092 0.041694 0.231507 0.155371 0.431768 4.146605 2.738993 7.320545 11.990736 -0.837813 14.315095 -13.061009 -4.647968 -0.549875 -7.219674 -15.403896 -21.490990 -38.090103 -61.654628 -46.874109 -47.780215 19.587347 -12.684826 -3.881505 -38.204556 2.964103 -9.772739 13.673377 39.270147 -40.906154 37.381201 71.590320 -22.410917 -46.301335 10.335648 -8.533628 5.113007 -10.817208 -66.790120 6.347137 -34.840714 73.394290 -36.275648 -3.655401 -6.927920 -0.412786 -0.203438 0.573725 -0.114984 -1.801602 -68.454606 15.111280 42.119998 61.724375 34.517568 -18.712398 -5.749428 5.098427 0.000534 -0.679989 -0.007973
-109.261524 57.340626 -5.476212 161.786594 -5.817963 0.570017 0.957620 4.221829 3.538902 -0.039746 0.139763 0.084479 0.017500 0.234595 0.153468 0.505531 4.144326 2.761064 7.053515 12.196094 -0.858174 13.792258 -12.708226 -4.550917 -0.599926 -7.113959 -15.412820 -21.250131 -38.014440 -61.755609 -46.672094 -48.490979 19.674470 -12.586150 -3.832078 -38.089693 3.066426 -9.736441 13.715853 39.300447 -40.820487 37.154781 71.517548 -22.506108 -46.377207 10.330964 -8.468391 5.219029 -10.821245 -66.782840 6.321283 -34.738493 73.380812 -36.165264 -3.606114 -6.930167 -0.391227 -0.239920 0.584198 -0.126830 -1.770242 -68.479520 15.061214 42.122309 61.741647 34.562151 -18.700107 -5.799998 5.105810 -0.021343 -0.696129 -0.018103
-109.280166 57.345444 -5.476535 161.797104 -5.797598 0.555048 0.998531 4.189540 3.554316 -0.040712 0.141437 0.090692 0.020185 0.235557 0.155214 0.562737 4.140540 2.772874 6.790432 12.400207 -0.875763 13.277549 -12.356711 -4.452130 -0.665159 -7.026311 -15.424661 -21.000261 -37.898104 -61.844282 -46.466155 -49.211996 19.743364 -12.476375 -3.770085 -37.945963 3.111776 -9.701337 13.743526 39.291808 -40.750514 36.998256 71.430365 -22.610985 -46.418905 10.333262 -8.391608 5.341812 -10.851041 -66.781725 6.303395 -34.614546 73.365530 -36.029766 -3.543531 -6.942629 -0.372388 -0.293694 0.607746 -0.144119 -1.759251 -68.521357 15.019356 42.148383 61.744924 34.627805 -18.696120 -5.829523 5.111316 -0.035307 -0.724057 -0.021606
-109.299037 57.351036 -5.483326 161.788972 -5.811599 0.539961 1.058627 4.190223 3.568907 0.015063 0.133340 0.088790 -0.029114 0.246314 0.162507 0.624014 4.134286 2.784278 6.531685 12.603481 -0.892003 12.772108 -12.005619 -4.354185 -0.734211 -6.964406 -15.432356 -20.744622 -37.744196 -61.932141 -46.245600 -49.943366 19.791964 -12.362252 -3.699044 -37.782993 3.135025 -9.670287 13.761792 39.246655 -40.681170 36.880507 71.351975 -22.720504 -46.453404 10.309734 -8.294617 5.480775 -10.860471 -66.751794 6.296939 -34.527676 73.356513 -35.936748 -3.540518 -6.950047 -0.361739 -0.295742 0.619407 -0.146663 -1.731729 -68.531123 14.981659 42.160743 61.777187 34.688388 -18.681639 -5.885072 5.115642 -0.030105 -0.751197 -0.019776
